<?xml version="1.0" encoding="UTF-8" standalone="no"?>
<!DOCTYPE svg PUBLIC "-//W3C//DTD SVG 1.1//EN" "http://www.w3.org/Graphics/SVG/1.1/DTD/svg11.dtd">
<svg width="100%" height="100%" viewBox="0 0 1080 1080" version="1.1" xmlns="http://www.w3.org/2000/svg" xmlns:xlink="http://www.w3.org/1999/xlink" xml:space="preserve" xmlns:serif="http://www.serif.com/" style="fill-rule:evenodd;clip-rule:evenodd;stroke-linejoin:round;stroke-miterlimit:2;">
    <g transform="matrix(0.493993,0,0,0.493993,-70.904188,-252.677632)">
        <path d="M2330.277,1061.196L2330.277,2150.672C2330.277,2451.321 2086.189,2695.41 1785.539,2695.41L696.063,2695.41C395.414,2695.41 151.325,2451.321 151.325,2150.672L151.325,1061.196C151.325,760.547 395.414,516.458 696.063,516.458L1785.539,516.458C2086.189,516.458 2330.277,760.547 2330.277,1061.196Z" style="fill:rgb(26,26,26);"/>
    </g>
    <g transform="matrix(0.106419,0.746202,-0.746202,0.106419,1580.960116,-455.128286)">
        <path d="M1083.014,1871.676L636.237,1807.103C551.238,1794.817 492.192,1716.09 504.197,1631.051L540.356,1374.924C555.598,1266.962 647.996,1186.692 757.029,1186.692L807.064,1186.692C915.171,1186.692 1006.406,1267.096 1019.996,1374.346L1083.014,1871.676ZM945.584,1714.211L912.109,1450.034C904.442,1389.522 852.966,1344.157 791.97,1344.157L783.329,1344.157C716.479,1344.157 659.828,1393.372 650.483,1459.566L641.532,1522.967C630.266,1602.768 685.675,1676.646 765.438,1688.175L945.584,1714.211Z" style="fill:rgb(255,98,0);"/>
    </g>
    <g transform="matrix(0.106419,-0.746202,-0.746202,-0.106419,1584.144674,1494.92355)">
        <path d="M965.713,1858.613C965.713,1858.613 1119.112,1489.975 1165.994,1377.283C1187.949,1324.524 1163.507,1263.909 1111.095,1241.135C1063.906,1220.569 998.999,1214.681 938.338,1205.414L767.542,1188.192C658.509,1188.192 555.598,1266.962 540.356,1374.924L504.197,1631.051C492.192,1716.09 551.238,1794.817 636.237,1807.103L965.713,1858.613ZM908.176,1708.167L721.945,1679.052C673.9,1672.108 640.525,1627.608 647.311,1579.541L667.749,1434.769C676.364,1373.745 734.533,1329.221 796.163,1329.221L892.703,1338.956C944.493,1346.868 1001.759,1350.422 1021.717,1384.791C1029.422,1398.053 1030.486,1414.154 1024.593,1428.314C1002.971,1480.364 908.176,1708.167 908.176,1708.167Z" style="fill:rgb(255,98,0);"/>
    </g>
</svg>
